<svg width="20" height="20" viewBox="0 0 20 20" fill="none" xmlns="http://www.w3.org/2000/svg">
<path d="M18.9471 6.305C18.937 5.54762 18.7952 4.79778 18.5281 4.089C18.2964 3.49115 17.9426 2.9482 17.4892 2.49483C17.0359 2.04146 16.4929 1.68765 15.8951 1.456C15.1954 1.19336 14.4562 1.05134 13.7091 1.036C12.7471 0.993 12.4421 0.981 10.0001 0.981C7.55807 0.981 7.24507 0.981 6.29007 1.036C5.54323 1.05145 4.80442 1.19347 4.10507 1.456C3.50713 1.68749 2.96409 2.04124 2.5107 2.49463C2.05732 2.94802 1.70356 3.49106 1.47207 4.089C1.2089 4.78813 1.06719 5.52711 1.05307 6.274C1.01007 7.237 0.99707 7.542 0.99707 9.984C0.99707 12.426 0.99707 12.738 1.05307 13.694C1.06807 14.442 1.20907 15.18 1.47207 15.881C1.70395 16.4788 2.05797 17.0216 2.51151 17.4748C2.96505 17.928 3.50813 18.2816 4.10607 18.513C4.8035 18.7862 5.54244 18.9384 6.29107 18.963C7.25407 19.006 7.55907 19.019 10.0011 19.019C12.4431 19.019 12.7561 19.019 13.7111 18.963C14.4582 18.9483 15.1974 18.8066 15.8971 18.544C16.4948 18.3121 17.0376 17.9582 17.4909 17.5048C17.9442 17.0515 18.2982 16.5087 18.5301 15.911C18.7931 15.211 18.9341 14.473 18.9491 13.724C18.9921 12.762 19.0051 12.457 19.0051 10.014C19.0031 7.572 19.0031 7.262 18.9471 6.305ZM9.99407 14.602C7.44007 14.602 5.37107 12.533 5.37107 9.979C5.37107 7.425 7.44007 5.356 9.99407 5.356C11.2202 5.356 12.396 5.84307 13.263 6.71005C14.13 7.57703 14.6171 8.7529 14.6171 9.979C14.6171 11.2051 14.13 12.381 13.263 13.248C12.396 14.1149 11.2202 14.602 9.99407 14.602ZM14.8011 6.263C14.6595 6.26313 14.5192 6.23534 14.3884 6.18121C14.2575 6.12708 14.1386 6.04768 14.0385 5.94755C13.9384 5.84743 13.859 5.72854 13.8049 5.59769C13.7507 5.46684 13.7229 5.3266 13.7231 5.185C13.7231 5.0435 13.7509 4.90339 13.8051 4.77266C13.8592 4.64193 13.9386 4.52315 14.0387 4.42309C14.1387 4.32304 14.2575 4.24367 14.3882 4.18952C14.519 4.13537 14.6591 4.1075 14.8006 4.1075C14.9421 4.1075 15.0822 4.13537 15.2129 4.18952C15.3436 4.24367 15.4624 4.32304 15.5625 4.42309C15.6625 4.52315 15.7419 4.64193 15.7961 4.77266C15.8502 4.90339 15.8781 5.0435 15.8781 5.185C15.8781 5.781 15.3961 6.263 14.8011 6.263Z" fill="#1B1B1B" fill-opacity="0.5"/>
</svg>
