<svg width="35" height="27" viewBox="0 0 35 27" fill="none" xmlns="http://www.w3.org/2000/svg">
<path d="M22.8777 12.7383L15.5652 7.86328C15.4275 7.77261 15.2679 7.72086 15.1032 7.71352C14.9385 7.70618 14.7749 7.74352 14.6297 7.82159C14.4844 7.89966 14.3631 8.01555 14.2783 8.15699C14.1936 8.29842 14.1487 8.46014 14.1484 8.625V18.375C14.1486 18.5412 14.1941 18.7042 14.28 18.8464C14.3659 18.9887 14.489 19.1049 14.6359 19.1824C14.7803 19.2603 14.9432 19.2972 15.107 19.2892C15.2708 19.2811 15.4292 19.2284 15.5652 19.1367L22.8777 14.2617C23.0034 14.1783 23.1065 14.0652 23.1779 13.9322C23.2492 13.7993 23.2865 13.6508 23.2865 13.5C23.2865 13.3492 23.2492 13.2007 23.1779 13.0678C23.1065 12.9349 23.0034 12.8217 22.8777 12.7383ZM15.9766 16.6688V10.3313L20.7297 13.5L15.9766 16.6688ZM33.4047 4.70977C33.2721 4.1956 33.0193 3.72029 32.667 3.32299C32.3147 2.92569 31.8731 2.61778 31.3785 2.42461C26.1836 0.428908 17.8504 0.459377 17.5 0.459377C17.1496 0.459377 8.81641 0.428908 3.62148 2.42461C3.12688 2.61778 2.68526 2.92569 2.33299 3.32299C1.98071 3.72029 1.72788 4.1956 1.59531 4.70977C1.19922 6.20274 0.742188 8.94492 0.742188 13.5C0.742188 18.0551 1.19922 20.7973 1.59531 22.2902C1.72788 22.8044 1.98071 23.2797 2.33299 23.677C2.68526 24.0743 3.12688 24.3822 3.62148 24.5754C8.81641 26.5711 17.1496 26.5406 17.5 26.5406H17.6066C18.6578 26.5406 26.4273 26.4797 31.3785 24.5754C31.8731 24.3822 32.3147 24.0743 32.667 23.677C33.0193 23.2797 33.2721 22.8044 33.4047 22.2902C33.8008 20.7973 34.2578 18.0551 34.2578 13.5C34.2578 8.94492 33.8008 6.20274 33.4047 4.70977V4.70977ZM31.6375 21.8332C31.5776 22.0657 31.4635 22.2807 31.3047 22.4607C31.1458 22.6408 30.9467 22.7807 30.7234 22.8691C25.8484 24.743 17.5914 24.7125 17.5 24.7125C17.4086 24.7125 9.15156 24.743 4.27656 22.8691C4.05335 22.7807 3.8542 22.6408 3.69535 22.4607C3.5365 22.2807 3.42245 22.0657 3.3625 21.8332C2.99688 20.4316 2.57031 17.857 2.57031 13.5C2.57031 9.14297 2.99688 6.56836 3.3625 5.1668C3.42245 4.93431 3.5365 4.71929 3.69535 4.53926C3.8542 4.35923 4.05335 4.21929 4.27656 4.13086C9.15156 2.25703 17.4086 2.2875 17.5 2.2875C17.5914 2.2875 25.8484 2.25703 30.7234 4.13086C30.9467 4.21929 31.1458 4.35923 31.3047 4.53926C31.4635 4.71929 31.5776 4.93431 31.6375 5.1668C32.0031 6.56836 32.4297 9.14297 32.4297 13.5C32.4297 17.857 32.0031 20.4316 31.6375 21.8332V21.8332Z" fill="#1B1B1B" fill-opacity="0.3"/>
</svg>
