<svg width="24" height="24" viewBox="0 0 24 24" fill="none" xmlns="http://www.w3.org/2000/svg">
<g clip-path="url(#clip0_667_645)">
<mask id="mask0_667_645" style="mask-type:luminance" maskUnits="userSpaceOnUse" x="0" y="0" width="24" height="24">
<path d="M0 0H24V24H0V0Z" fill="white"/>
</mask>
<g mask="url(#mask0_667_645)">
<path d="M23.4996 6.507C23.3637 6.02223 23.099 5.58335 22.7336 5.237C22.3579 4.88 21.8974 4.62464 21.3956 4.495C19.5176 4 11.9936 4 11.9936 4C8.85697 3.96431 5.72107 4.12127 2.60364 4.47C2.10183 4.60921 1.6422 4.87029 1.26564 5.23C0.895641 5.586 0.627641 6.025 0.487641 6.506C0.151334 8.31774 -0.0120674 10.1573 -0.000359379 12C-0.0123594 13.841 0.150641 15.68 0.487641 17.494C0.624641 17.973 0.891641 18.41 1.26264 18.763C1.63364 19.116 2.09564 19.371 2.60364 19.506C4.50664 20 11.9936 20 11.9936 20C15.1343 20.0357 18.2742 19.8788 21.3956 19.53C21.8974 19.4004 22.3579 19.145 22.7336 18.788C23.0989 18.4417 23.3633 18.0028 23.4986 17.518C23.8437 15.707 24.0115 13.8666 23.9996 12.023C24.0256 10.1716 23.858 8.32256 23.4996 6.506V6.507ZM9.60164 15.424V8.577L15.8616 12.001L9.60164 15.424Z" fill="#1B1B1B"/>
</g>
</g>
<defs>
<clipPath id="clip0_667_645">
<rect width="24" height="24" fill="white"/>
</clipPath>
</defs>
</svg>
