<svg width="24" height="18" viewBox="0 0 24 18" fill="none" xmlns="http://www.w3.org/2000/svg">
<path d="M23.4996 3.507C23.3637 3.02223 23.099 2.58335 22.7336 2.237C22.3579 1.88 21.8974 1.62464 21.3956 1.495C19.5176 1 11.9936 1 11.9936 1C8.85697 0.964312 5.72107 1.12127 2.60364 1.47C2.10183 1.60921 1.6422 1.87029 1.26564 2.23C0.895641 2.586 0.627641 3.025 0.487641 3.506C0.151334 5.31774 -0.0120674 7.15734 -0.000359379 9C-0.0123594 10.841 0.150641 12.68 0.487641 14.494C0.624641 14.973 0.891641 15.41 1.26264 15.763C1.63364 16.116 2.09564 16.371 2.60364 16.506C4.50664 17 11.9936 17 11.9936 17C15.1343 17.0357 18.2742 16.8788 21.3956 16.53C21.8974 16.4004 22.3579 16.145 22.7336 15.788C23.0989 15.4417 23.3633 15.0028 23.4986 14.518C23.8437 12.707 24.0115 10.8666 23.9996 9.023C24.0256 7.1716 23.858 5.32256 23.4996 3.506V3.507ZM9.60164 12.424V5.577L15.8616 9.001L9.60164 12.424Z" fill="#1B1B1B" fill-opacity="0.5"/>
</svg>
